<svg viewBox="0 0 40 40" fill="none" xmlns="http://www.w3.org/2000/svg">
  <!-- Gradient Definitions -->
  <defs>
    <linearGradient id="watchGradient" x1="0%" y1="0%" x2="100%" y2="100%">
      <stop offset="0%" stop-color="#00a085" />
      <stop offset="100%" stop-color="#0066cc" />
    </linearGradient>
    <linearGradient id="crossGradient" x1="0%" y1="0%" x2="100%" y2="100%">
      <stop offset="0%" stop-color="#0066cc" />
      <stop offset="100%" stop-color="#5a4fcf" />
    </linearGradient>
    <radialGradient id="glowGradient" cx="50%" cy="50%" r="50%">
      <stop offset="0%" stop-color="#0066cc" stop-opacity="0.2" />
      <stop offset="100%" stop-color="#0066cc" stop-opacity="0" />
    </radialGradient>
  </defs>

  <!-- Background Glow -->
  <circle cx="20" cy="20" r="18" fill="url(#glowGradient)" />
  
  <!-- Watch Band -->
  <path
    d="M8 12C8 10.8954 8.89543 10 10 10H14V6C14 4.89543 14.8954 4 16 4H24C25.1046 4 26 4.89543 26 6V10H30C31.1046 10 32 10.8954 32 12V28C32 29.1046 31.1046 30 30 30H26V34C26 35.1046 25.1046 36 24 36H16C14.8954 36 14 35.1046 14 34V30H10C8.89543 30 8 29.1046 8 28V12Z"
    fill="url(#watchGradient)"
    filter="drop-shadow(0 2px 4px rgba(0,0,0,0.1))"
  />
  
  <!-- Watch Screen -->
  <rect
    x="12"
    y="12"
    width="16"
    height="16"
    rx="2"
    fill="#ffffff"
    stroke="rgba(0,0,0,0.1)"
    stroke-width="0.5"
  />
  
  <!-- Health Cross Icon -->
  <g transform="translate(20, 20)">
    <!-- Vertical bar -->
    <rect
      x="-1"
      y="-4"
      width="2"
      height="8"
      rx="1"
      fill="url(#crossGradient)"
    />
    <!-- Horizontal bar -->
    <rect
      x="-4"
      y="-1"
      width="8"
      height="2"
      rx="1"
      fill="url(#crossGradient)"
    />
  </g>
  
  <!-- Data Connection Indicators -->
  <g opacity="0.8">
    <!-- Top connections -->
    <circle cx="14" cy="8" r="1" fill="#5a4fcf">
      <animate attributeName="opacity" values="0.3;1;0.3" dur="2s" repeatCount="indefinite" />
    </circle>
    <circle cx="18" cy="7" r="0.8" fill="#0066cc">
      <animate attributeName="opacity" values="0.3;1;0.3" dur="2s" repeatCount="indefinite" begin="0.5s" />
    </circle>
    <circle cx="22" cy="7" r="0.8" fill="#00a085">
      <animate attributeName="opacity" values="0.3;1;0.3" dur="2s" repeatCount="indefinite" begin="1s" />
    </circle>
    <circle cx="26" cy="8" r="1" fill="#5a4fcf">
      <animate attributeName="opacity" values="0.3;1;0.3" dur="2s" repeatCount="indefinite" begin="1.5s" />
    </circle>
    
    <!-- Bottom connections -->
    <circle cx="14" cy="32" r="1" fill="#00a085">
      <animate attributeName="opacity" values="0.3;1;0.3" dur="2s" repeatCount="indefinite" begin="0.2s" />
    </circle>
    <circle cx="18" cy="33" r="0.8" fill="#5a4fcf">
      <animate attributeName="opacity" values="0.3;1;0.3" dur="2s" repeatCount="indefinite" begin="0.7s" />
    </circle>
    <circle cx="22" cy="33" r="0.8" fill="#0066cc">
      <animate attributeName="opacity" values="0.3;1;0.3" dur="2s" repeatCount="indefinite" begin="1.2s" />
    </circle>
    <circle cx="26" cy="32" r="1" fill="#00a085">
      <animate attributeName="opacity" values="0.3;1;0.3" dur="2s" repeatCount="indefinite" begin="1.7s" />
    </circle>
  </g>
</svg>
